<svg width="42" height="43" viewBox="0 0 42 43" fill="none" xmlns="http://www.w3.org/2000/svg">
<g id="assistant">
<path id="Vector" d="M39.4075 16.5305C39.0785 16.8756 38.9478 17.3746 39.0375 17.8535C39.2586 19.0331 39.3744 20.2524 39.3744 21.4999C39.3744 31.8898 31.3433 40.3125 21.437 40.3125C16.1935 40.3125 11.4756 37.9528 8.19575 34.1911C7.67969 33.5991 6.78953 33.5378 6.24877 34.1049C5.79016 34.5859 5.74724 35.3551 6.18063 35.8612C9.93355 40.2434 15.3783 43 21.437 43C32.7586 43 41.9369 33.3741 41.9369 21.4999C41.9369 20.0011 41.7906 18.5383 41.5123 17.126C41.3099 16.099 40.1145 15.789 39.4075 16.5305Z" fill="#25272A"/>
<path id="Vector_2" d="M36.2698 8.49549C36.7379 8.00443 36.7723 7.21565 36.3167 6.71164C32.5808 2.57807 27.2957 0 21.4365 0C10.1147 0 0.936523 9.62589 0.936523 21.5C0.936523 23.1162 1.1066 24.6908 1.42896 26.2053C1.64467 27.2187 2.82823 27.516 3.52827 26.7817C3.86232 26.4313 3.99106 25.9228 3.89263 25.438C3.63475 24.1681 3.49901 22.8507 3.49901 21.5C3.49901 11.1101 11.5299 2.6875 21.4365 2.6875C26.5057 2.6875 31.0835 4.89279 34.3458 8.43852C34.8676 9.00561 35.7386 9.05272 36.2698 8.49549Z" fill="#25272A"/>
<path id="Vector_3" fill-rule="evenodd" clip-rule="evenodd" d="M37.1318 2.6875C37.8393 2.6875 38.413 3.2891 38.413 4.03125V9.40626C38.413 10.1484 37.8393 10.75 37.1318 10.75H32.0068C31.2991 10.75 30.7256 10.1484 30.7256 9.40626C30.7256 8.6641 31.2991 8.06251 32.0068 8.06251H35.8506V4.03125C35.8506 3.2891 36.424 2.6875 37.1318 2.6875Z" fill="#25272A"/>
<path id="Vector_4" fill-rule="evenodd" clip-rule="evenodd" d="M4.83524 32.6437C5.07552 32.3916 5.40142 32.25 5.7412 32.25H10.8662C11.5738 32.25 12.1474 32.8517 12.1474 33.5938C12.1474 34.336 11.5738 34.9375 10.8662 34.9375H7.02245V38.9688C7.02245 39.711 6.44884 40.3125 5.7412 40.3125C5.0336 40.3125 4.45996 39.711 4.45996 38.9688V33.5938C4.45996 33.2374 4.59495 32.8955 4.83524 32.6437Z" fill="#25272A"/>
<path id="Vector_5" d="M22.0107 22.3965V27.6141C23.7063 27.4157 24.9256 26.3869 24.9256 24.9099C24.9256 23.4108 23.5803 22.8521 22.0669 22.4113L22.0107 22.3965Z" fill="#25272A"/>
<path id="Vector_6" d="M18.3398 17.8845C18.3398 19.3763 19.7974 19.9937 20.8624 20.3094V15.4301C19.3208 15.6432 18.3398 16.6133 18.3398 17.8845Z" fill="#25272A"/>
<path id="Vector_7" fill-rule="evenodd" clip-rule="evenodd" d="M21.4365 34.9375C28.5125 34.9375 34.2489 28.9213 34.2489 21.5C34.2489 14.0787 28.5125 8.06256 21.4365 8.06256C14.3604 8.06256 8.62402 14.0787 8.62402 21.5C8.62402 28.9213 14.3604 34.9375 21.4365 34.9375ZM22.011 30.9063H20.8619V29.2677C18.1083 29.0766 16.4265 27.4598 16.2654 25.1451H18.0591C18.1852 26.6587 19.3906 27.4526 20.8619 27.6141V22.0512L20.3013 21.8822C18.0591 21.206 16.6579 20.0009 16.6579 17.9727C16.6579 15.6652 18.4586 14.0632 20.8619 13.806V12.0938H22.011V13.784C24.5476 13.9604 26.3413 15.5918 26.4113 17.7375H24.7298C24.5755 16.4002 23.4964 15.5624 22.011 15.408V20.633L22.5716 20.7946C24.0571 21.206 26.6076 22.1173 26.6076 24.9392C26.6076 27.2319 24.954 29.0546 22.011 29.2677V30.9063Z" fill="#25272A"/>
</g>
</svg>
