<svg width="1440" height="700" viewBox="0 0 1440 700" fill="none" xmlns="http://www.w3.org/2000/svg">
<g clip-path="url(#clip0_405_48)">
<rect width="1440" height="700" fill="#CDC4C3"/>
<g filter="url(#filter0_f_405_48)">
<g opacity="0.75" filter="url(#filter1_f_405_48)">
<ellipse cx="875.5" cy="-178" rx="448.5" ry="326" fill="url(#paint0_linear_405_48)"/>
</g>
</g>
<g filter="url(#filter2_b_405_48)">
<circle cx="712" cy="889" r="775" stroke="white" stroke-width="5" stroke-linejoin="round"/>
</g>
<g filter="url(#filter3_d_405_48)">
<ellipse cx="712" cy="902" rx="763" ry="769" stroke="black" stroke-width="0.01" stroke-linejoin="round" shape-rendering="crispEdges"/>
</g>
<path d="M297.5 432L311.083 470.004H355.039L319.478 493.492L333.061 531.496L297.5 508.008L261.939 531.496L275.522 493.492L239.961 470.004H283.917L297.5 432Z" fill="#D9D9D9"/>
<path d="M1161.5 432L1175.08 470.004H1219.04L1183.48 493.492L1197.06 531.496L1161.5 508.008L1125.94 531.496L1139.52 493.492L1103.96 470.004H1147.92L1161.5 432Z" fill="#D9D9D9"/>
<g filter="url(#filter4_f_405_48)">
<path d="M901 913.5C901 968.316 846.695 1020.91 749.944 1059.78C653.193 1098.66 521.858 1120.67 384.622 1121C247.385 1121.33 115.398 1099.95 17.484 1061.54C-80.4295 1023.13 -136.313 970.806 -137.962 915.994C-139.612 861.181 -86.8929 808.335 8.68113 768.996C104.255 729.657 234.918 707.022 372.135 706.034C509.352 705.046 641.973 725.785 741.035 763.722C840.097 801.659 897.551 853.712 900.85 908.513L381.5 913.5H901Z" fill="#97A5C0"/>
</g>
</g>
<defs>
<filter id="filter0_f_405_48" x="177" y="-754" width="1397" height="1152" filterUnits="userSpaceOnUse" color-interpolation-filters="sRGB">
<feFlood flood-opacity="0" result="BackgroundImageFix"/>
<feBlend mode="normal" in="SourceGraphic" in2="BackgroundImageFix" result="shape"/>
<feGaussianBlur stdDeviation="125" result="effect1_foregroundBlur_405_48"/>
</filter>
<filter id="filter1_f_405_48" x="407" y="-524" width="937" height="692" filterUnits="userSpaceOnUse" color-interpolation-filters="sRGB">
<feFlood flood-opacity="0" result="BackgroundImageFix"/>
<feBlend mode="normal" in="SourceGraphic" in2="BackgroundImageFix" result="shape"/>
<feGaussianBlur stdDeviation="10" result="effect1_foregroundBlur_405_48"/>
</filter>
<filter id="filter2_b_405_48" x="-165.5" y="11.5" width="1755" height="1755" filterUnits="userSpaceOnUse" color-interpolation-filters="sRGB">
<feFlood flood-opacity="0" result="BackgroundImageFix"/>
<feGaussianBlur in="BackgroundImageFix" stdDeviation="50"/>
<feComposite in2="SourceAlpha" operator="in" result="effect1_backgroundBlur_405_48"/>
<feBlend mode="normal" in="SourceGraphic" in2="effect1_backgroundBlur_405_48" result="shape"/>
</filter>
<filter id="filter3_d_405_48" x="-86.0049" y="109.995" width="1596.01" height="1608.01" filterUnits="userSpaceOnUse" color-interpolation-filters="sRGB">
<feFlood flood-opacity="0" result="BackgroundImageFix"/>
<feColorMatrix in="SourceAlpha" type="matrix" values="0 0 0 0 0 0 0 0 0 0 0 0 0 0 0 0 0 0 127 0" result="hardAlpha"/>
<feMorphology radius="15" operator="dilate" in="SourceAlpha" result="effect1_dropShadow_405_48"/>
<feOffset dy="12"/>
<feGaussianBlur stdDeviation="10"/>
<feComposite in2="hardAlpha" operator="out"/>
<feColorMatrix type="matrix" values="0 0 0 0 0.392157 0 0 0 0 0.482353 0 0 0 0 0.647059 0 0 0 1 0"/>
<feBlend mode="normal" in2="BackgroundImageFix" result="effect1_dropShadow_405_48"/>
<feBlend mode="normal" in="SourceGraphic" in2="effect1_dropShadow_405_48" result="shape"/>
</filter>
<filter id="filter4_f_405_48" x="-338" y="506" width="1439" height="815" filterUnits="userSpaceOnUse" color-interpolation-filters="sRGB">
<feFlood flood-opacity="0" result="BackgroundImageFix"/>
<feBlend mode="normal" in="SourceGraphic" in2="BackgroundImageFix" result="shape"/>
<feGaussianBlur stdDeviation="100" result="effect1_foregroundBlur_405_48"/>
</filter>
<linearGradient id="paint0_linear_405_48" x1="875.5" y1="-504" x2="875.5" y2="148" gradientUnits="userSpaceOnUse">
<stop offset="0.685" stop-color="#647BA5"/>
<stop offset="0.825" stop-color="#647BA5" stop-opacity="0.45"/>
<stop offset="0.88375" stop-color="#647BA5" stop-opacity="0.7"/>
<stop offset="1" stop-color="#647BA5" stop-opacity="0.3"/>
</linearGradient>
<clipPath id="clip0_405_48">
<rect width="1440" height="700" fill="white"/>
</clipPath>
</defs>
</svg>
