<svg width="1440" height="759" viewBox="0 0 1440 759" fill="none" xmlns="http://www.w3.org/2000/svg">
<g clip-path="url(#clip0_440_30)">
<rect width="1440" height="759" fill="#CDC4C3"/>
<g filter="url(#filter0_f_440_30)">
<path d="M868 707.5C868 762.316 813.695 814.906 716.944 853.783C620.193 892.66 488.858 914.667 351.622 914.996C214.385 915.326 82.3976 893.951 -15.516 855.541C-113.429 817.131 -169.313 764.806 -170.962 709.994C-172.612 655.181 -119.893 602.335 -24.3189 562.996C71.2551 523.657 201.918 501.022 339.135 500.034C476.352 499.046 608.973 519.785 708.035 557.722C807.097 595.659 864.551 647.712 867.85 702.513L348.5 707.5H868Z" fill="#97A5C0"/>
</g>
<g filter="url(#filter1_f_440_30)">
<g opacity="0.75" filter="url(#filter2_f_440_30)">
<ellipse cx="906.5" cy="-15.5" rx="448.5" ry="169.5" fill="url(#paint0_linear_440_30)"/>
</g>
</g>
</g>
<defs>
<filter id="filter0_f_440_30" x="-371" y="300" width="1439" height="815" filterUnits="userSpaceOnUse" color-interpolation-filters="sRGB">
<feFlood flood-opacity="0" result="BackgroundImageFix"/>
<feBlend mode="normal" in="SourceGraphic" in2="BackgroundImageFix" result="shape"/>
<feGaussianBlur stdDeviation="100" result="effect1_foregroundBlur_440_30"/>
</filter>
<filter id="filter1_f_440_30" x="208" y="-435" width="1397" height="839" filterUnits="userSpaceOnUse" color-interpolation-filters="sRGB">
<feFlood flood-opacity="0" result="BackgroundImageFix"/>
<feBlend mode="normal" in="SourceGraphic" in2="BackgroundImageFix" result="shape"/>
<feGaussianBlur stdDeviation="125" result="effect1_foregroundBlur_440_30"/>
</filter>
<filter id="filter2_f_440_30" x="438" y="-205" width="937" height="379" filterUnits="userSpaceOnUse" color-interpolation-filters="sRGB">
<feFlood flood-opacity="0" result="BackgroundImageFix"/>
<feBlend mode="normal" in="SourceGraphic" in2="BackgroundImageFix" result="shape"/>
<feGaussianBlur stdDeviation="10" result="effect1_foregroundBlur_440_30"/>
</filter>
<linearGradient id="paint0_linear_440_30" x1="906.5" y1="-185" x2="906.5" y2="154" gradientUnits="userSpaceOnUse">
<stop offset="0.685" stop-color="#647BA5"/>
<stop offset="0.825" stop-color="#647BA5" stop-opacity="0.45"/>
<stop offset="0.88375" stop-color="#647BA5" stop-opacity="0.7"/>
<stop offset="1" stop-color="#647BA5" stop-opacity="0.3"/>
</linearGradient>
<clipPath id="clip0_440_30">
<rect width="1440" height="759" fill="white"/>
</clipPath>
</defs>
</svg>
